<svg width="64" height="64" viewBox="0 0 64 64" fill="none" xmlns="http://www.w3.org/2000/svg">
    <path fill-rule="evenodd" clip-rule="evenodd" d="M32 8C27.5817 8 24 11.5817 24 16C24 20.4183 27.5817 24 32 24C36.4183 24 40 20.4183 40 16C40 11.5817 36.4183 8 32 8ZM18.6667 16C18.6667 8.6362 24.6362 2.66666 32 2.66666C39.3638 2.66666 45.3334 8.6362 45.3334 16C45.3334 23.3638 39.3638 29.3333 32 29.3333C24.6362 29.3333 18.6667 23.3638 18.6667 16Z" fill="url(#paint0_linear_513_224)"/>
    <path d="M10.6667 17.9333C10.6667 16.2765 12.0098 14.9333 13.6667 14.9333H50.3334C51.9903 14.9333 53.3335 16.2765 53.3335 17.9333V53.6667C53.3335 56.4281 51.0949 58.6667 48.3335 58.6667H15.6667C12.9053 58.6667 10.6667 56.4281 10.6667 53.6667V17.9333Z" fill="url(#paint1_linear_513_224)"/>
    <path d="M41 28L32 37M32 37L23 46M32 37L41 46M32 37L23 28" stroke="black" stroke-opacity="0.4" stroke-width="4" stroke-linejoin="round"/>
    <defs>
        <linearGradient id="paint0_linear_513_224" x1="21.3334" y1="5.33333" x2="21.3334" y2="26.6667" gradientUnits="userSpaceOnUse">
            <stop stop-color="#F83D64"/>
            <stop offset="1" stop-color="#F83D64"/>
        </linearGradient>
        <linearGradient id="paint1_linear_513_224" x1="10.6667" y1="14.9333" x2="10.6667" y2="58.6667" gradientUnits="userSpaceOnUse">
            <stop stop-color="#F83D64"/>
            <stop offset="1" stop-color="#C8193E"/>
        </linearGradient>
    </defs>
</svg>
