<svg width="20" height="20" viewBox="0 0 40 40" fill="none" stroke="#111827" xmlns="http://www.w3.org/2000/svg">
    <path d="M36.6837 20.1252C36.6837 20.1252 38.6765 25.8443 37.3919 27.4551C36.1072 29.0659 34.1776 28.7311 29.5963 28.7311C25.015 28.7311 22.5872 29.2167 21.3896 27.6683C20.192 26.12 19.8697 22.3863 23.0813 21.3248C26.2929 20.2634 28.3137 23.6497 28.3137 27.4564C28.3137 31.2632 28.7573 31.3582 27.8273 33.0095C26.5932 34.7365 20.5758 35.61 20.5758 35.61" stroke-width="3"/>
    <path d="M37.6426 14.6133V17.2497" stroke-width="3"/>
    <path d="M32.9937 14.6133V17.2497" stroke-width="3"/>
    <path d="M32.9937 14.6133V17.2497" stroke-width="3"/>
    <path d="M9.7664 31.8643C9.7664 31.8643 13.3374 34.9411 15.1913 33.9394C15.9107 33.5517 16.4913 32.9494 16.8525 32.2163C17.2137 31.4832 17.3375 30.6557 17.2065 29.849C16.9103 27.0326 14.4539 26.1127 12.701 26.9144C10.9481 27.7161 10.0333 30.8108 10.0333 30.8108C10.0333 30.8108 8.79983 34.0882 5.97215 34.0882C3.14448 34.0882 2.69877 32.3612 2.65094 30.8108C2.60312 29.2605 2 17.6854 2 17.6854"  stroke-width="3"/>
    <path d="M8.41699 0V2.63637" stroke-width="3"/>
    <path d="M3.09698 3.58479C3.09698 3.58479 0.755437 11.6181 4.72694 13.9596C8.46197 15.9756 13.0866 13.4853 13.0866 13.4853C13.0866 13.4853 15.3933 12.0904 15.3687 10.2544C15.3096 7.67519 14.2722 1.6286 14.2722 1.6286" stroke-width="3"/>
</svg>
